# xmcd
#
# Track frame offsets:
#	150
#	14843
#	29590
#	39378
#	50113
#	62070
#	83705
#	98038
#	113995
#	128928
#
# Disc length: 1866 seconds
#
# Revision: 2
# Processed by: cddbd v1.4PL0 Copyright (c) Steve Scherf et al.
# Submitted via: audiograbber 1.80
#
DISCID=8a07480a
DTITLE=Various Artist - 30 Years of #1 Hits Vol. 12
DYEAR=1900
DGENRE=
TTITLE0=Rosanne Cash - My Baby Thinks He's A Train
TTITLE1=Ricky Skaggs - Heartbroke
TTITLE2=Charly McClain - Who's Cheatin' Who
TTITLE3=George Jones and Tammy Wynette - Near You
TTITLE4=Mickey Gilley - That's All That Matters
TTITLE5=Merle Haggard and Willie Nelson - Pancho and Lefty
TTITLE6=Ricky Skaggs - Highway 40 Blues
TTITLE7=Crystal Gayle - It's Like We Never Said Goodbye
TTITLE8=Mickey Gilley - Talk To Me, Talk To Me
TTITLE9=Janie Frickie - Don't Worry 'Bout Me Baby
EXTD=
EXTT0=Rosanne Cash
EXTT1=Ricky Skaggs
EXTT2=Charly McClain
EXTT3=George Jones and Tammy Wynette
EXTT4=Mickey Gilley
EXTT5=Merle Haggard and Willie Nelson
EXTT6=Ricky Skaggs
EXTT7=Crystal Gayle
EXTT8=Mickey Gilley
EXTT9=Janie Frickie
PLAYORDER=
